<svg width="22" height="27" viewBox="0 0 22 27" fill="none" xmlns="http://www.w3.org/2000/svg">
<path d="M17.7366 16.4575C19.0341 14.6229 20.0498 12.6554 20.0498 10.305C20.0498 7.83692 19.0694 5.46992 17.3242 3.72472C15.579 1.97953 13.212 0.999084 10.7439 0.999084C8.27582 0.999084 5.90883 1.97953 4.16363 3.72472C2.41843 5.46992 1.43799 7.83692 1.43799 10.305C1.43799 13.3467 2.99075 15.4419 4.75621 17.7497L10.6535 25.4976C10.7599 25.6358 12.7008 23.0461 12.8657 22.8387C13.6101 21.8851 14.3475 20.9262 15.0778 19.9619C15.9446 18.8026 16.9018 17.6646 17.7366 16.4575Z" stroke="#B800FF" stroke-opacity="0.3" stroke-width="2" stroke-linecap="round" stroke-linejoin="round"/>
<path d="M10.7492 14.3305C13.1105 14.3305 15.0246 12.4258 15.0246 10.0763C15.0246 7.72685 13.1105 5.82221 10.7492 5.82221C8.38798 5.82221 6.47382 7.72685 6.47382 10.0763C6.47382 12.4258 8.38798 14.3305 10.7492 14.3305Z" stroke="#B800FF" stroke-opacity="0.3" stroke-width="2" stroke-linecap="round" stroke-linejoin="round"/>
</svg>
