<svg width="23" height="24" viewBox="0 0 23 24" fill="none" xmlns="http://www.w3.org/2000/svg">
<path d="M16.9746 13.0524H6.41491C6.21487 13.0524 6.02302 13.1319 5.88156 13.2733C5.74011 13.4148 5.66064 13.6066 5.66064 13.8067C5.66224 15.2065 6.21902 16.5485 7.20884 17.5383C8.19866 18.5281 9.54069 19.0849 10.9405 19.0865H12.449C13.8488 19.0849 15.1909 18.5281 16.1807 17.5383C17.1705 16.5485 17.7273 15.2065 17.7289 13.8067C17.7289 13.6066 17.6494 13.4148 17.508 13.2733C17.3665 13.1319 17.1747 13.0524 16.9746 13.0524ZM12.449 17.578H10.9405C10.0714 17.577 9.22921 17.2764 8.55594 16.7268C7.88268 16.1772 7.41953 15.4122 7.2446 14.5609H16.1449C15.97 15.4122 15.5069 16.1772 14.8336 16.7268C14.1603 17.2764 13.3181 17.577 12.449 17.578Z" fill="#39C822"/>
<path d="M22.2547 7.77255C22.253 7.23786 22.062 6.72105 21.7156 6.31374C21.3692 5.90644 20.8897 5.63497 20.3622 5.54746C19.3964 4.14051 18.1026 2.98984 16.5925 2.19482C15.0824 1.39981 13.4015 0.98436 11.695 0.98436C9.98841 0.98436 8.3075 1.39981 6.79744 2.19482C5.28737 2.98984 3.99354 4.14051 3.02771 5.54746C2.50022 5.63497 2.02077 5.90644 1.67436 6.31374C1.32795 6.72105 1.13696 7.23786 1.13525 7.77255V9.28108C1.13829 9.51863 1.17929 9.75417 1.25669 9.97877C1.02657 11.483 1.12429 13.0192 1.54314 14.4822C1.96199 15.9451 2.69209 17.3002 3.68342 18.4548C4.67475 19.6093 5.90391 20.5359 7.2867 21.1712C8.66949 21.8064 10.1732 22.1353 11.695 22.1353C13.2167 22.1353 14.7205 21.8064 16.1032 21.1712C17.486 20.5359 18.7152 19.6093 19.7065 18.4548C20.6979 17.3002 21.4279 15.9451 21.8468 14.4822C22.2657 13.0192 22.3634 11.483 22.1333 9.97877C22.2107 9.75417 22.2516 9.51863 22.2547 9.28108V7.77255ZM20.7462 9.28108C20.7448 9.47126 20.6712 9.65382 20.5402 9.79172C20.5206 9.81208 20.4972 9.82868 20.4761 9.84678C20.4301 9.88599 20.3794 9.91942 20.3253 9.94634C20.2995 9.96004 20.2731 9.97237 20.2461 9.9833C20.165 10.0152 20.079 10.0328 19.9919 10.0353H15.4663C15.2663 10.0353 15.0744 9.95588 14.933 9.81442C14.7915 9.67297 14.712 9.48112 14.712 9.28108V7.77255C14.712 7.5725 14.7915 7.38065 14.933 7.2392C15.0744 7.09775 15.2663 7.01828 15.4663 7.01828H19.9919C20.1919 7.01828 20.3838 7.09775 20.5252 7.2392C20.6667 7.38065 20.7462 7.5725 20.7462 7.77255V9.28108ZM11.695 2.49269C12.9686 2.48997 14.2284 2.75748 15.391 3.27756C16.5536 3.79764 17.5927 4.55845 18.4396 5.50975H15.4663C14.8662 5.50975 14.2906 5.74815 13.8663 6.17251C13.4419 6.59687 13.2035 7.17242 13.2035 7.77255H10.1864C10.1864 7.17242 9.94804 6.59687 9.52368 6.17251C9.09933 5.74815 8.52378 5.50975 7.92364 5.50975H4.95033C5.79723 4.55845 6.8363 3.79764 7.99894 3.27756C9.16158 2.75748 10.4213 2.48997 11.695 2.49269ZM2.64379 7.77255C2.64379 7.5725 2.72325 7.38065 2.8647 7.2392C3.00616 7.09775 3.19801 7.01828 3.39805 7.01828H7.92364C8.12369 7.01828 8.31554 7.09775 8.45699 7.2392C8.59844 7.38065 8.67791 7.5725 8.67791 7.77255V9.28108C8.67791 9.48112 8.59844 9.67297 8.45699 9.81442C8.31554 9.95588 8.12369 10.0353 7.92364 10.0353H3.39805C3.30968 10.0332 3.22236 10.0156 3.14009 9.9833C3.11307 9.97237 3.08663 9.96004 3.06089 9.94634C3.00674 9.91942 2.95608 9.88599 2.91004 9.84678C2.88892 9.82868 2.86554 9.81208 2.84593 9.79172C2.71632 9.65324 2.64408 9.47075 2.64379 9.28108V7.77255ZM11.695 20.5951C9.29524 20.5925 6.99455 19.638 5.29768 17.9412C3.60082 16.2443 2.64638 13.9436 2.64379 11.5439C2.64379 11.5001 2.64379 11.4564 2.64379 11.4134C2.69885 11.433 2.75693 11.4428 2.8135 11.4579C2.87006 11.473 2.92211 11.4911 2.97868 11.5016C3.11681 11.529 3.25723 11.5432 3.39805 11.5439H7.92364C8.52378 11.5439 9.09933 11.3055 9.52368 10.8811C9.94804 10.4568 10.1864 9.88121 10.1864 9.28108H13.2035C13.2035 9.88121 13.4419 10.4568 13.8663 10.8811C14.2906 11.3055 14.8662 11.5439 15.4663 11.5439H19.9919C20.1325 11.5431 20.2726 11.529 20.4105 11.5016C20.4671 11.4911 20.5206 11.473 20.5757 11.4579C20.6308 11.4428 20.6903 11.433 20.7454 11.4134C20.7454 11.4564 20.7454 11.5001 20.7454 11.5439C20.7428 13.9435 19.7885 16.2441 18.0918 17.9409C16.3951 19.6377 14.0946 20.5923 11.695 20.5951Z" fill="#39C822"/>
<rect x="0.272461" y="18.917" width="4.95907" height="5.97372" transform="rotate(-45 0.272461 18.917)" fill="white"/>
<g clip-path="url(#clip0)">
<path fill-rule="evenodd" clip-rule="evenodd" d="M6.11774 19.4954H4.51493V21.0982C4.51493 21.1503 4.47269 21.1925 4.42065 21.1925H3.66638C3.61434 21.1925 3.5721 21.1503 3.5721 21.0982V19.4954H1.96928C1.91724 19.4954 1.875 19.4532 1.875 19.4011V18.6469C1.875 18.5948 1.91724 18.5526 1.96928 18.5526H3.5721V16.9498C3.5721 16.8977 3.61434 16.8555 3.66638 16.8555H4.42065C4.47269 16.8555 4.51493 16.8977 4.51493 16.9498V18.5526H6.11774C6.16979 18.5526 6.21203 18.5948 6.21203 18.6469V19.4011C6.21203 19.4532 6.16979 19.4954 6.11774 19.4954Z" fill="#39C822"/>
</g>
<defs>
<clipPath id="clip0">
<rect x="1.875" y="16.8555" width="4.52559" height="4.52559" fill="white"/>
</clipPath>
</defs>
</svg>
