<svg width="23" height="23" viewBox="0 0 23 23" fill="none" xmlns="http://www.w3.org/2000/svg">
<path d="M10.2209 22.9206C7.66886 22.9187 5.22187 21.9041 3.41729 20.0995C1.61271 18.2949 0.598076 15.848 0.596191 13.2959C0.596739 7.98908 4.91246 3.67172 10.2209 3.67172C10.4386 3.67172 10.6474 3.75821 10.8014 3.91216C10.9553 4.0661 11.0418 4.2749 11.0418 4.49262V12.475H19.0247C19.2425 12.475 19.4513 12.5615 19.6052 12.7154C19.7591 12.8694 19.8456 13.0782 19.8456 13.2959C19.8456 18.6027 15.5294 22.9206 10.2209 22.9206ZM9.40002 5.35346C5.38256 5.76555 2.23853 9.16953 2.23798 13.2943C2.23943 15.4112 3.0809 17.441 4.57763 18.938C6.07436 20.4351 8.104 21.2769 10.2209 21.2788C14.3456 21.2788 17.7496 18.1348 18.1617 14.1168H10.2209C10.0032 14.1168 9.7944 14.0303 9.64045 13.8764C9.4865 13.7224 9.40002 13.5136 9.40002 13.2959V5.35346Z" fill="#00A3FF"/>
<path d="M21.7754 11.5868H12.7511C12.5334 11.5868 12.3246 11.5003 12.1706 11.3464C12.0167 11.1924 11.9302 10.9836 11.9302 10.7659V1.74152C11.9302 1.52381 12.0167 1.31501 12.1706 1.16106C12.3246 1.00712 12.5334 0.92063 12.7511 0.92063C18.1799 0.92063 22.5963 5.33759 22.5963 10.7659C22.5963 10.9836 22.5099 11.1924 22.3559 11.3464C22.202 11.5003 21.9932 11.5868 21.7754 11.5868ZM13.572 9.94501H20.9141C20.7221 8.06323 19.8869 6.30528 18.5493 4.96781C17.2118 3.63034 15.4538 2.79525 13.572 2.60346V9.94501Z" fill="#00A3FF"/>
</svg>
