<svg width="32" height="31" viewBox="0 0 32 31" fill="none" xmlns="http://www.w3.org/2000/svg">
<path d="M28.4235 0.870178H4.47848C2.83226 0.870178 1.48535 2.21708 1.48535 3.8633V30.8014L7.4716 24.8152H28.4235C30.0697 24.8152 31.4166 23.4683 31.4166 21.8221V3.8633C31.4166 2.21708 30.0697 0.870178 28.4235 0.870178Z" fill="#03A8FF"/>
<path d="M10.2722 9.08408C11.1582 9.08408 11.9324 9.25569 12.5949 9.5989C13.2653 9.93413 13.7802 10.421 14.1393 11.0595C14.5065 11.6901 14.6901 12.4284 14.6901 13.2745C14.6901 14.1205 14.5065 14.8548 14.1393 15.4774C13.7802 16.1 13.2653 16.5789 12.5949 16.9141C11.9324 17.2413 11.1582 17.405 10.2722 17.405H7.55447V9.08408H10.2722ZM10.2722 16.2915C11.246 16.2915 11.9923 16.0281 12.5111 15.5013C13.0299 14.9746 13.2893 14.2323 13.2893 13.2745C13.2893 12.3087 13.0299 11.5544 12.5111 11.0117C11.9923 10.4689 11.246 10.1975 10.2722 10.1975H8.91933V16.2915H10.2722ZM24.4475 9.08408V17.405H23.0826V11.7061L20.5444 17.405H19.5986L17.0485 11.7061V17.405H15.6836V9.08408H17.1562L20.0775 15.6091L22.9868 9.08408H24.4475Z" fill="white"/>
</svg>
