<svg width="36" height="35" viewBox="0 0 36 35" fill="none" xmlns="http://www.w3.org/2000/svg">
<path d="M32.0108 0.180908H4.61122C2.7275 0.180908 1.18628 1.72213 1.18628 3.60585V34.4303L8.03616 27.5805H32.0108C33.8945 27.5805 35.4357 26.0392 35.4357 24.1555V3.60585C35.4357 1.72213 33.8945 0.180908 32.0108 0.180908Z" fill="#03A8FF"/>
<path d="M12.5051 9.41579C13.5189 9.41579 14.4048 9.61216 15.1629 10.0049C15.9301 10.3885 16.5192 10.9456 16.9302 11.6763C17.3503 12.3978 17.5604 13.2426 17.5604 14.2107C17.5604 15.1788 17.3503 16.0191 16.9302 16.7315C16.5192 17.4439 15.9301 17.9918 15.1629 18.3754C14.4048 18.7499 13.5189 18.9371 12.5051 18.9371H9.39529V9.41579H12.5051ZM12.5051 17.6631C13.6194 17.6631 14.4733 17.3617 15.067 16.7589C15.6606 16.1561 15.9575 15.3067 15.9575 14.2107C15.9575 13.1056 15.6606 12.2425 15.067 11.6215C14.4733 11.0004 13.6194 10.6899 12.5051 10.6899H10.9571V17.6631H12.5051ZM24.4374 16.9918H20.4508L19.7658 18.9371H18.1355L21.5468 9.40209H23.3551L26.7664 18.9371H25.1224L24.4374 16.9918ZM23.999 15.7177L22.451 11.2927L20.8892 15.7177H23.999Z" fill="white"/>
</svg>
