<svg width="32" height="31" viewBox="0 0 32 31" fill="none" xmlns="http://www.w3.org/2000/svg">
<path d="M28.1229 0.870178H4.17794C2.53172 0.870178 1.18481 2.21708 1.18481 3.8633V30.8014L7.17106 24.8152H28.1229C29.7692 24.8152 31.1161 23.4683 31.1161 21.8221V3.8633C31.1161 2.21708 29.7692 0.870178 28.1229 0.870178Z" fill="#03A8FF"/>
<path d="M13.1721 9.08408V17.405H11.8073V13.7653H7.89226V17.405H6.52739V9.08408H7.89226V12.6519H11.8073V9.08408H13.1721ZM14.1548 13.2266C14.1548 12.4124 14.3424 11.6821 14.7175 11.0356C15.1006 10.3891 15.6155 9.88624 16.262 9.52706C16.9165 9.15991 17.6308 8.97633 18.405 8.97633C19.291 8.97633 20.0772 9.19582 20.7636 9.63482C21.458 10.0658 21.9609 10.6804 22.2722 11.4786H20.6319C20.4164 11.0396 20.1171 10.7123 19.734 10.4968C19.3509 10.2813 18.9079 10.1736 18.405 10.1736C17.8543 10.1736 17.3634 10.2973 16.9324 10.5447C16.5014 10.7922 16.1622 11.1473 15.9148 11.6103C15.6753 12.0732 15.5556 12.612 15.5556 13.2266C15.5556 13.8412 15.6753 14.3799 15.9148 14.8429C16.1622 15.3058 16.5014 15.665 16.9324 15.9204C17.3634 16.1678 17.8543 16.2915 18.405 16.2915C18.9079 16.2915 19.3509 16.1838 19.734 15.9683C20.1171 15.7528 20.4164 15.4255 20.6319 14.9865H22.2722C21.9609 15.7847 21.458 16.3993 20.7636 16.8303C20.0772 17.2613 19.291 17.4768 18.405 17.4768C17.6228 17.4768 16.9085 17.2972 16.262 16.938C15.6155 16.5709 15.1006 16.064 14.7175 15.4175C14.3424 14.771 14.1548 14.0407 14.1548 13.2266ZM24.8754 9.08408V17.405H23.5106V9.08408H24.8754Z" fill="white"/>
</svg>
