<svg width="31" height="31" viewBox="0 0 31 31" fill="none" xmlns="http://www.w3.org/2000/svg">
<path d="M27.8402 0.870178H3.89522C2.24901 0.870178 0.9021 2.21708 0.9021 3.8633V30.8014L6.88835 24.8152H27.8402C29.4864 24.8152 30.8333 23.4683 30.8333 21.8221V3.8633C30.8333 2.21708 29.4864 0.870178 27.8402 0.870178Z" fill="#03A8FF"/>
<path d="M10.7939 9.08408C11.6798 9.08408 12.454 9.25569 13.1165 9.5989C13.787 9.93413 14.3018 10.421 14.661 11.0595C15.0281 11.6901 15.2117 12.4284 15.2117 13.2745C15.2117 14.1205 15.0281 14.8548 14.661 15.4774C14.3018 16.1 13.787 16.5789 13.1165 16.9141C12.454 17.2413 11.6798 17.405 10.7939 17.405H8.0761V9.08408H10.7939ZM10.7939 16.2915C11.7676 16.2915 12.5139 16.0281 13.0327 15.5013C13.5515 14.9746 13.8109 14.2323 13.8109 13.2745C13.8109 12.3087 13.5515 11.5544 13.0327 11.0117C12.5139 10.4689 11.7676 10.1975 10.7939 10.1975H9.44096V16.2915H10.7939ZM21.2217 15.7049H17.7377L17.1391 17.405H15.7144L18.6955 9.07211H20.2759L23.257 17.405H21.8203L21.2217 15.7049ZM20.8386 14.5914L19.4857 10.7243L18.1208 14.5914H20.8386Z" fill="white"/>
</svg>
