<svg width="57" height="56" viewBox="0 0 57 56" fill="none" xmlns="http://www.w3.org/2000/svg">
<path d="M50.8832 0.810913H7.11919C4.11041 0.810913 1.64868 3.27264 1.64868 6.28142V55.516L12.5897 44.575H50.8832C53.892 44.575 56.3537 42.1132 56.3537 39.1045V6.28142C56.3537 3.27264 53.892 0.810913 50.8832 0.810913Z" fill="#03A8FF"/>
<path d="M21.0633 30.6161H23.5579V15.4081H21.0633V21.9289H13.9079V15.4081H11.4133V30.6161H13.9079V23.964H21.0633V30.6161ZM25.3539 22.9793C25.3539 27.5526 28.8331 30.7474 33.122 30.7474C36.2949 30.7474 39.0302 29.1719 40.1899 26.1959H37.1921C36.3824 27.8152 34.9382 28.5811 33.122 28.5811C30.1023 28.5811 27.9141 26.4147 27.9141 22.9793C27.9141 19.5438 30.1023 17.3993 33.122 17.3993C34.9382 17.3993 36.3824 18.1652 37.1921 19.7845H40.1899C39.0302 16.8085 36.2949 15.2111 33.122 15.2111C28.8331 15.2111 25.3539 18.4278 25.3539 22.9793ZM42.4533 30.6161H44.9479V15.4081H42.4533V30.6161Z" fill="white"/>
</svg>
