<svg width="26" height="26" viewBox="0 0 26 26" fill="none" xmlns="http://www.w3.org/2000/svg">
<path d="M23.4433 0.500854H3.27994C1.89371 0.500854 0.759521 1.63504 0.759521 3.02127V25.705L5.80035 20.6642H23.4433C24.8295 20.6642 25.9637 19.53 25.9637 18.1438V3.02127C25.9637 1.63504 24.8295 0.500854 23.4433 0.500854Z" fill="#03A8FF"/>
<path d="M8.15878 6.78658C8.90482 6.78658 9.55677 6.93108 10.1146 7.22009C10.6792 7.50238 11.1127 7.91237 11.4152 8.45005C11.7243 8.98102 11.8789 9.60272 11.8789 10.3152C11.8789 11.0276 11.7243 11.6459 11.4152 12.1702C11.1127 12.6944 10.6792 13.0977 10.1146 13.38C9.55677 13.6556 8.90482 13.7933 8.15878 13.7933H5.87024V6.78658H8.15878ZM8.15878 12.8557C8.97875 12.8557 9.60717 12.6339 10.044 12.1904C10.4809 11.7468 10.6994 11.1217 10.6994 10.3152C10.6994 9.50191 10.4809 8.86676 10.044 8.40973C9.60717 7.95269 8.97875 7.72417 8.15878 7.72417H7.01955V12.8557H8.15878ZM20.0953 6.78658V13.7933H18.946V8.99446L16.8087 13.7933H16.0122L13.8648 8.99446V13.7933H12.7155V6.78658H13.9556L16.4155 12.2811L18.8653 6.78658H20.0953Z" fill="white"/>
</svg>
