<svg width="23" height="23" viewBox="0 0 23 23" fill="none" xmlns="http://www.w3.org/2000/svg">
<path d="M17.0958 13.014H6.09578C5.88739 13.014 5.68754 13.0967 5.54019 13.2441C5.39284 13.3914 5.31006 13.5913 5.31006 13.7997C5.31172 15.2579 5.89172 16.6558 6.92281 17.6869C7.95391 18.718 9.35189 19.298 10.8101 19.2997H12.3815C13.8397 19.298 15.2377 18.718 16.2688 17.6869C17.2999 16.6558 17.8799 15.2579 17.8815 13.7997C17.8815 13.5913 17.7988 13.3914 17.6514 13.2441C17.5041 13.0967 17.3042 13.014 17.0958 13.014ZM12.3815 17.7283H10.8101C9.90473 17.7273 9.02742 17.4141 8.32609 16.8416C7.62475 16.2691 7.14229 15.4722 6.96007 14.5854H16.2315C16.0493 15.4722 15.5668 16.2691 14.8655 16.8416C14.1642 17.4141 13.2869 17.7273 12.3815 17.7283Z" fill="#39C822"/>
<path d="M22.5963 7.51396C22.5945 6.95698 22.3955 6.41861 22.0347 5.99433C21.6738 5.57005 21.1744 5.28725 20.6249 5.1961C19.6188 3.73048 18.271 2.53182 16.698 1.70366C15.125 0.875491 13.374 0.442719 11.5962 0.442719C9.81851 0.442719 8.06751 0.875491 6.49448 1.70366C4.92144 2.53182 3.57367 3.73048 2.56756 5.1961C2.01808 5.28725 1.51863 5.57005 1.15778 5.99433C0.796918 6.41861 0.597965 6.95698 0.596192 7.51396V9.0854C0.599356 9.33285 0.642062 9.57821 0.722693 9.81219C0.482979 11.3791 0.584767 12.9794 1.02108 14.5034C1.4574 16.0273 2.21794 17.439 3.25061 18.6416C4.28328 19.8443 5.56369 20.8095 7.00414 21.4713C8.44459 22.1331 10.011 22.4757 11.5962 22.4757C13.1814 22.4757 14.7479 22.1331 16.1883 21.4713C17.6288 20.8095 18.9092 19.8443 19.9419 18.6416C20.9745 17.439 21.7351 16.0273 22.1714 14.5034C22.6077 12.9794 22.7095 11.3791 22.4698 9.81219C22.5504 9.57821 22.5931 9.33285 22.5963 9.0854V7.51396ZM21.0248 9.0854C21.0235 9.28351 20.9468 9.47368 20.8103 9.61733C20.7899 9.63854 20.7656 9.65583 20.7436 9.67469C20.6956 9.71553 20.6428 9.75036 20.5864 9.7784C20.5596 9.79267 20.5321 9.80552 20.5039 9.8169C20.4194 9.85013 20.3299 9.86847 20.2391 9.87111H15.5248C15.3164 9.87111 15.1166 9.78833 14.9692 9.64098C14.8219 9.49363 14.7391 9.29378 14.7391 9.0854V7.51396C14.7391 7.30558 14.8219 7.10573 14.9692 6.95838C15.1166 6.81103 15.3164 6.72825 15.5248 6.72825H20.2391C20.4475 6.72825 20.6474 6.81103 20.7947 6.95838C20.9421 7.10573 21.0248 7.30558 21.0248 7.51396V9.0854ZM11.5962 2.01394C12.923 2.01111 14.2353 2.28978 15.4464 2.83155C16.6575 3.37331 17.7399 4.16585 18.6221 5.15681H15.5248C14.8997 5.15681 14.3001 5.40515 13.8581 5.8472C13.416 6.28926 13.1677 6.88881 13.1677 7.51396H10.0248C10.0248 6.88881 9.77646 6.28926 9.33441 5.8472C8.89235 5.40515 8.2928 5.15681 7.66765 5.15681H4.57035C5.45256 4.16585 6.53497 3.37331 7.74608 2.83155C8.9572 2.28978 10.2695 2.01111 11.5962 2.01394ZM2.16763 7.51396C2.16763 7.30558 2.25041 7.10573 2.39776 6.95838C2.54511 6.81103 2.74496 6.72825 2.95334 6.72825H7.66765C7.87603 6.72825 8.07588 6.81103 8.22323 6.95838C8.37058 7.10573 8.45336 7.30558 8.45336 7.51396V9.0854C8.45336 9.29378 8.37058 9.49363 8.22323 9.64098C8.07588 9.78833 7.87603 9.87111 7.66765 9.87111H2.95334C2.86129 9.86893 2.77033 9.85058 2.68463 9.8169C2.65647 9.80552 2.62894 9.79267 2.60213 9.7784C2.54572 9.75036 2.49294 9.71553 2.44498 9.67469C2.42298 9.65583 2.39863 9.63854 2.3782 9.61733C2.24319 9.47308 2.16793 9.28297 2.16763 9.0854V7.51396ZM11.5962 20.8712C9.09644 20.8685 6.69981 19.8742 4.93219 18.1066C3.16457 16.339 2.17033 13.9423 2.16763 11.4425C2.16763 11.397 2.16763 11.3514 2.16763 11.3066C2.22498 11.327 2.28548 11.3373 2.34441 11.353C2.40334 11.3687 2.45756 11.3875 2.51648 11.3985C2.66037 11.4271 2.80666 11.4418 2.95334 11.4425H7.66765C8.2928 11.4425 8.89235 11.1942 9.33441 10.7522C9.77646 10.3101 10.0248 9.71055 10.0248 9.0854H13.1677C13.1677 9.71055 13.416 10.3101 13.8581 10.7522C14.3001 11.1942 14.8997 11.4425 15.5248 11.4425H20.2391C20.3855 11.4418 20.5316 11.427 20.6752 11.3985C20.7341 11.3875 20.7899 11.3687 20.8473 11.353C20.9046 11.3373 20.9667 11.327 21.0241 11.3066C21.0241 11.3514 21.0241 11.397 21.0241 11.4425C21.0214 13.9422 20.0272 16.3387 18.2598 18.1063C16.4923 19.8739 14.0959 20.8682 11.5962 20.8712Z" fill="#39C822"/>
</svg>
