<svg width="31" height="31" viewBox="0 0 31 31" fill="none" xmlns="http://www.w3.org/2000/svg">
<path fill-rule="evenodd" clip-rule="evenodd" d="M10.7163 23.1027C11.1739 23.5603 11.9159 23.5603 12.3736 23.1027L25.6318 9.84441C26.0895 9.38677 26.0895 8.64477 25.6318 8.18713C25.1742 7.72948 24.4322 7.72948 23.9745 8.18713L10.7163 21.4454C10.2586 21.903 10.2586 22.645 10.7163 23.1027Z" fill="#FFA800"/>
<path fill-rule="evenodd" clip-rule="evenodd" d="M5.48435 16.3147C5.94199 15.8571 6.68398 15.8571 7.14163 16.3147L12.1135 21.2866C12.5711 21.7442 12.5711 22.4862 12.1135 22.9438C11.6558 23.4015 10.9138 23.4015 10.4562 22.9438L5.48435 17.972C5.0267 17.5143 5.0267 16.7724 5.48435 16.3147Z" fill="#FFA800"/>
</svg>
