<svg width="23" height="23" viewBox="0 0 23 23" fill="none" xmlns="http://www.w3.org/2000/svg">
<g clip-path="url(#clip0)">
<path d="M11.9301 1.28042C6.34162 1.28042 1.81006 5.81154 1.81006 11.4004C1.81006 16.9893 6.34162 21.5204 11.9301 21.5204C17.5185 21.5204 22.0501 16.9893 22.0501 11.4004C22.0501 5.81154 17.5185 1.28042 11.9301 1.28042Z" stroke="#00ADB5" stroke-width="2" stroke-miterlimit="10" stroke-linecap="round" stroke-linejoin="round"/>
<path d="M9.16283 15.6768L7.44287 10.3695L11.9419 7.08974L16.4418 10.3695L14.7236 15.6768H9.16283Z" stroke="#00ADB5" stroke-width="2" stroke-miterlimit="10" stroke-linecap="round" stroke-linejoin="round"/>
<path d="M15.7751 2.06714L11.9418 3.70262L8.10938 2.06714" stroke="#00ADB5" stroke-width="2" stroke-miterlimit="10" stroke-linecap="round" stroke-linejoin="round"/>
<path d="M4.2943 4.84706L4.66258 9.01078L1.92578 12.1612" stroke="#00ADB5" stroke-width="2" stroke-miterlimit="10" stroke-linecap="round" stroke-linejoin="round"/>
<path d="M3.38379 16.6615L7.44367 17.5965L9.58603 21.1807" stroke="#00ADB5" stroke-width="2" stroke-miterlimit="10" stroke-linecap="round" stroke-linejoin="round"/>
<path d="M14.3008 21.1807L16.4414 17.5947L20.4999 16.6597" stroke="#00ADB5" stroke-width="2" stroke-miterlimit="10" stroke-linecap="round" stroke-linejoin="round"/>
<path d="M21.9592 12.1603L19.2202 9.00814L19.5881 4.84706" stroke="#00ADB5" stroke-width="2" stroke-miterlimit="10" stroke-linecap="round" stroke-linejoin="round"/>
<path d="M11.9414 3.70262V7.08974" stroke="#00ADB5" stroke-width="2" stroke-miterlimit="10" stroke-linecap="round" stroke-linejoin="round"/>
<path d="M16.4414 10.5011L19.22 9.00814" stroke="#00ADB5" stroke-width="2" stroke-miterlimit="10" stroke-linecap="round" stroke-linejoin="round"/>
<path d="M14.7231 15.6768L16.4413 17.5947" stroke="#00ADB5" stroke-width="2" stroke-miterlimit="10" stroke-linecap="round" stroke-linejoin="round"/>
<path d="M9.16244 15.6768L7.44336 17.5965" stroke="#00ADB5" stroke-width="2" stroke-miterlimit="10" stroke-linecap="round" stroke-linejoin="round"/>
<path d="M4.6626 9.01078L7.44252 10.3695" stroke="#00ADB5" stroke-width="2" stroke-miterlimit="10" stroke-linecap="round" stroke-linejoin="round"/>
</g>
<defs>
<clipPath id="clip0">
<rect x="0.930176" y="0.400421" width="22" height="22" fill="white"/>
</clipPath>
</defs>
</svg>
