<svg width="23" height="40" viewBox="0 0 23 40" fill="none" xmlns="http://www.w3.org/2000/svg">
<path d="M2.35433 36.3016H3.53733V32.2196H6.73533V31.2576H3.53733V28.2026H7.47633V27.2406H2.35433V36.3016ZM15.1451 29.1776H13.9621V33.0906C13.9621 34.6246 13.1431 35.3786 11.9211 35.3786C10.7251 35.3786 9.93211 34.6376 9.93211 33.1946V29.1776H8.76211V33.3506C8.76211 35.3916 10.0491 36.4056 11.6871 36.4056C12.6361 36.4056 13.5071 35.9896 13.9621 35.2486V36.3016H15.1451V29.1776ZM17.0645 36.3016H18.2475V26.6816H17.0645V36.3016ZM20.1858 36.3016H21.3688V26.6816H20.1858V36.3016Z" fill="#9E9E9E"/>
<rect x="4.3501" y="0.146439" width="15.0373" height="15.0373" rx="3" fill="#FF0000"/>
</svg>
