<svg width="49" height="40" viewBox="0 0 49 40" fill="none" xmlns="http://www.w3.org/2000/svg">
<path d="M7.78739 27.2276V34.4296L3.02939 27.2276H1.84639V36.3016H3.02939V29.0866L7.78739 36.3016H8.97039V27.2276H7.78739ZM17.669 32.7266C17.669 30.4776 16.096 29.0606 14.068 29.0606C12.053 29.0606 10.467 30.4776 10.467 32.7266C10.467 34.9886 12.001 36.4186 14.016 36.4186C16.044 36.4186 17.669 34.9886 17.669 32.7266ZM11.676 32.7266C11.676 30.9326 12.807 30.0876 14.055 30.0876C15.277 30.0876 16.46 30.9326 16.46 32.7266C16.46 34.5336 15.251 35.3786 14.016 35.3786C12.781 35.3786 11.676 34.5336 11.676 32.7266ZM20.3294 32.4276C20.3294 30.7766 21.1874 30.2696 22.3184 30.2696H22.6304V29.0476C21.4994 29.0476 20.7324 29.5416 20.3294 30.3346V29.1776H19.1464V36.3016H20.3294V32.4276ZM34.2011 36.3016H35.3711V32.1026C35.3711 30.0616 34.1101 29.0476 32.4851 29.0476C31.3931 29.0476 30.3791 29.6066 29.9631 30.6336C29.4951 29.5676 28.5201 29.0476 27.3501 29.0476C26.4141 29.0476 25.5691 29.4506 25.1011 30.2046V29.1776H23.9181V36.3016H25.1011V32.3756C25.1011 30.8416 25.9201 30.0746 27.1161 30.0746C28.2861 30.0746 29.0661 30.8156 29.0661 32.2716V36.3016H30.2361V32.3756C30.2361 30.8416 31.0551 30.0746 32.2511 30.0746C33.4211 30.0746 34.2011 30.8156 34.2011 32.2716V36.3016ZM36.7916 32.7136C36.7916 34.9236 38.2606 36.4186 40.1586 36.4186C41.4716 36.4186 42.3946 35.7426 42.8236 34.9756V36.3016H44.0196V29.1776H42.8236V30.4776C42.4076 29.7366 41.4976 29.0606 40.1716 29.0606C38.2606 29.0606 36.7916 30.4906 36.7916 32.7136ZM42.8236 32.7266C42.8236 34.4036 41.7056 35.3786 40.4056 35.3786C39.1056 35.3786 38.0006 34.3906 38.0006 32.7136C38.0006 31.0366 39.1056 30.0876 40.4056 30.0876C41.7056 30.0876 42.8236 31.0756 42.8236 32.7266ZM45.9408 36.3016H47.1238V26.6816H45.9408V36.3016Z" fill="#9E9E9E"/>
<rect x="16.9736" y="0.146439" width="15.0373" height="15.0373" rx="3" fill="#FFA800"/>
</svg>
