<svg width="36" height="40" viewBox="0 0 36 40" fill="none" xmlns="http://www.w3.org/2000/svg">
<path d="M2.26189 31.7646C2.26189 29.5416 3.69189 28.1636 5.60289 28.1636C7.51389 28.1636 8.94389 29.5416 8.94389 31.7646C8.94389 33.9746 7.51389 35.3656 5.60289 35.3656C3.69189 35.3656 2.26189 33.9746 2.26189 31.7646ZM10.1529 31.7646C10.1529 29.0476 8.16389 27.1366 5.60289 27.1366C3.05489 27.1366 1.05289 29.0476 1.05289 31.7646C1.05289 34.4816 3.05489 36.3926 5.60289 36.3926C6.07089 36.3926 6.52589 36.3276 6.95489 36.2106L8.76189 38.0176H10.2959L8.00789 35.7426C9.30789 34.9626 10.1529 33.5326 10.1529 31.7646ZM17.98 29.1776H16.797V33.0906C16.797 34.6246 15.978 35.3786 14.756 35.3786C13.56 35.3786 12.767 34.6376 12.767 33.1946V29.1776H11.597V33.3506C11.597 35.3916 12.884 36.4056 14.522 36.4056C15.471 36.4056 16.342 35.9896 16.797 35.2486V36.3016H17.98V29.1776ZM19.8994 36.3016H21.0824V29.1776H19.8994V36.3016ZM20.5104 28.0206C20.9394 28.0206 21.2904 27.6696 21.2904 27.2146C21.2904 26.7596 20.9394 26.4086 20.5104 26.4086C20.0554 26.4086 19.7044 26.7596 19.7044 27.2146C19.7044 27.6696 20.0554 28.0206 20.5104 28.0206ZM26.0497 30.0616C27.2717 30.0616 28.3117 30.8286 28.2987 32.2196H23.8007C23.9307 30.8286 24.8927 30.0616 26.0497 30.0616ZM29.3777 34.1046H28.1037C27.8437 34.8716 27.1677 35.4176 26.1017 35.4176C24.8927 35.4176 23.8787 34.6246 23.7877 33.1816H29.4817C29.5077 32.9346 29.5207 32.7266 29.5207 32.4666C29.5207 30.5166 28.1687 29.0606 26.1017 29.0606C24.0217 29.0606 22.5787 30.4776 22.5787 32.7266C22.5787 34.9886 24.0737 36.4186 26.1017 36.4186C27.8697 36.4186 29.0137 35.4046 29.3777 34.1046ZM31.2642 34.3516C31.2642 35.7816 31.9792 36.3016 33.2402 36.3016H34.3062V35.3006H33.4352C32.7072 35.3006 32.4472 35.0536 32.4472 34.3516V30.1526H34.3062V29.1776H32.4472V27.3836H31.2642V29.1776H30.3412V30.1526H31.2642V34.3516Z" fill="#9E9E9E"/>
<rect x="10.0977" y="0.146439" width="15.0373" height="15.0373" rx="3" fill="#33FF00"/>
</svg>
