<svg width="166" height="55" viewBox="0 0 166 55" fill="none" xmlns="http://www.w3.org/2000/svg">
<path d="M0.744283 1.65901L33.5835 1.65826L40.3604 37.1374L60.3965 37.4036L65.9823 2.08883L97.9547 2.51373L106.248 32.7144L123.3 32.941L131.206 2.95562L153.374 3.25021L152.932 36.5015L161.458 36.6148M0.744302 13.8906L23.6144 13.8906L30.3572 51.9275L69.5768 52.4487L75.6229 14.5818L75.1186 52.5224L90.0391 52.7207L89.6907 14.7688L96.4336 52.8057L130.538 53.2589L139.994 15.4373L139.49 53.3779C139.49 53.3779 151.742 53.5407 161.231 53.6668" stroke="#9E9E9E" stroke-width="1.5" stroke-linejoin="bevel"/>
<path d="M27.08 12.4142L29.3689 13.6086L30.5634 11.3197L27.08 12.4142Z" fill="#03A8FF"/>
<path d="M106.423 43.0472L108.249 41.2215L106.423 39.3959V43.0472Z" fill="#03A8FF"/>
<path d="M163.709 46.7274L165.534 44.9018L163.709 43.0761V46.7274Z" fill="#03A8FF"/>
<path d="M131.763 34.7831L130.594 32.4812L128.292 33.6505L131.763 34.7831Z" fill="#03A8FF"/>
<path d="M81.6217 10.3852L83.4473 8.55953L81.6217 6.73389V10.3852Z" fill="#03A8FF"/>
<path d="M86.9246 41.0874L85.099 39.2618L83.2733 41.0874L86.9246 41.0874Z" fill="#03A8FF"/>
<path d="M67.8668 36.6496L66.578 34.4124L64.3408 35.7012L67.8668 36.6496Z" fill="#03A8FF"/>
<path d="M19.2595 7.63965H27.4047L28.9201 12.2399" stroke="#03A8FF" stroke-linejoin="round"/>
<path d="M31.6803 24.2006L33.5204 32.4811" stroke="#03A8FF" stroke-linejoin="round"/>
<path d="M34.9005 39.8415L36.2805 44.9018H42.7209" stroke="#03A8FF"/>
<path d="M57.9019 44.9017H63.4222L66.1824 35.7012" stroke="#03A8FF"/>
<path d="M69.4895 17.6599L71.0595 8.55957H81.8232" stroke="#03A8FF"/>
<path d="M94.244 13.1598L96.0842 19.6002" stroke="#03A8FF"/>
<path d="M80.02 40.7615C79.9832 43.5216 79.5231 46.2818 82.3201 46.2818C85.5035 46.2818 85.0803 43.5216 85.0803 40.7615" stroke="#03A8FF"/>
<path d="M99.7643 35.7012L101.604 41.2215H107.125" stroke="#03A8FF"/>
<path d="M137.487 9.47961H144.387" stroke="#03A8FF"/>
<path d="M146.227 33.8611V44.9017H163.825" stroke="#03A8FF"/>
<path d="M123.226 41.2215H127.826L130.126 33.8611" stroke="#03A8FF"/>
</svg>
