<svg width="35" height="34" viewBox="0 0 35 34" fill="none" xmlns="http://www.w3.org/2000/svg">
<path d="M7.14917 4.58469L17.1739 8.5V29.75L7.21292 25.4309C7.01538 25.351 6.84642 25.2136 6.728 25.0364C6.60958 24.8593 6.54717 24.6506 6.54886 24.4375V5.3125C6.54886 5.03071 6.6608 4.76046 6.86006 4.5612C7.05932 4.36194 7.32957 4.25 7.61136 4.25H21.9551C22.2369 4.25 22.5072 4.36194 22.7064 4.5612C22.9057 4.76046 23.0176 5.03071 23.0176 5.3125V24.4375C23.0176 24.7193 22.9057 24.9895 22.7064 25.1888C22.5072 25.3881 22.2369 25.5 21.9551 25.5H17.1739" stroke="#D60707" stroke-opacity="0.67" stroke-width="2" stroke-linecap="round" stroke-linejoin="round"/>
<path d="M15.0013 18.6256L12.9932 17.7969" stroke="#D60707" stroke-opacity="0.67" stroke-width="2" stroke-linecap="round" stroke-linejoin="round"/>
<path d="M26.7363 17.1275L28.9888 14.875L26.7363 12.6225" stroke="#D60707" stroke-opacity="0.67" stroke-width="2" stroke-linecap="round" stroke-linejoin="round"/>
<path d="M28.8613 14.875H23.0176" stroke="#D60707" stroke-opacity="0.67" stroke-width="2" stroke-linecap="round" stroke-linejoin="round"/>
</svg>
