<svg width="59" height="58" viewBox="0 0 59 58" fill="none" xmlns="http://www.w3.org/2000/svg">
<path d="M18.6738 16.0889C15.4531 16.0889 12.8483 18.6938 12.8483 21.9145C12.8483 26.2836 18.6738 32.7333 18.6738 32.7333C18.6738 32.7333 24.4993 26.2836 24.4993 21.9145C24.4993 18.6938 21.8945 16.0889 18.6738 16.0889ZM18.6738 23.995C17.5253 23.995 16.5933 23.0629 16.5933 21.9145C16.5933 20.766 17.5253 19.8339 18.6738 19.8339C19.8223 19.8339 20.7543 20.766 20.7543 21.9145C20.7543 23.0629 19.8223 23.995 18.6738 23.995Z" fill="#00A3FF"/>
<path d="M30.3249 0.968079C26.3727 0.968079 23.1763 4.16453 23.1763 8.11669C23.1763 13.4781 30.3249 21.3927 30.3249 21.3927C30.3249 21.3927 37.4735 13.4781 37.4735 8.11669C37.4735 4.16453 34.277 0.968079 30.3249 0.968079ZM30.3249 10.6698C28.9156 10.6698 27.7718 9.52598 27.7718 8.11669C27.7718 6.70739 28.9156 5.56361 30.3249 5.56361C31.7342 5.56361 32.8779 6.70739 32.8779 8.11669C32.8779 9.52598 31.7342 10.6698 30.3249 10.6698Z" fill="#00A3FF"/>
<path d="M33.3249 26.5355C31.3133 26.5355 29.6864 28.1624 29.6864 30.1739C29.6864 32.9028 33.3249 36.9311 33.3249 36.9311C33.3249 36.9311 36.9634 32.9028 36.9634 30.1739C36.9634 28.1624 35.3364 26.5355 33.3249 26.5355ZM33.3249 31.4734C32.6076 31.4734 32.0254 30.8912 32.0254 30.1739C32.0254 29.4566 32.6076 28.8745 33.3249 28.8745C34.0422 28.8745 34.6243 29.4566 34.6243 30.1739C34.6243 30.8912 34.0422 31.4734 33.3249 31.4734Z" fill="#00A3FF"/>
<path d="M7.71798 54.8016H8.96598L5.70298 45.7926H4.33798L1.06198 54.8016H2.30998L3.03798 52.7866H6.98998L7.71798 54.8016ZM6.65198 51.8246H3.37598L5.01398 47.2486L6.65198 51.8246ZM9.87375 51.2266C9.87375 53.4886 11.3167 54.9186 13.3447 54.9186C15.1127 54.9186 16.2697 53.9306 16.6337 52.5136H15.3597C15.0997 53.4106 14.3977 53.9176 13.3447 53.9176C12.0447 53.9176 11.0827 52.9946 11.0827 51.2266C11.0827 49.4846 12.0447 48.5616 13.3447 48.5616C14.3977 48.5616 15.1127 49.1076 15.3597 49.9656H16.6337C16.2697 48.4706 15.1127 47.5606 13.3447 47.5606C11.3167 47.5606 9.87375 48.9906 9.87375 51.2266ZM18.3942 52.8516C18.3942 54.2816 19.1092 54.8016 20.3702 54.8016H21.4362V53.8006H20.5652C19.8372 53.8006 19.5772 53.5536 19.5772 52.8516V48.6526H21.4362V47.6776H19.5772V45.8836H18.3942V47.6776H17.4712V48.6526H18.3942V52.8516ZM22.7916 54.8016H23.9746V47.6776H22.7916V54.8016ZM23.4026 46.5206C23.8316 46.5206 24.1826 46.1696 24.1826 45.7146C24.1826 45.2596 23.8316 44.9086 23.4026 44.9086C22.9476 44.9086 22.5966 45.2596 22.5966 45.7146C22.5966 46.1696 22.9476 46.5206 23.4026 46.5206ZM25.0678 47.6776L27.8628 54.8016H29.2408L32.0358 47.6776H30.7748L28.5648 53.7096L26.3418 47.6776H25.0678ZM33.1219 54.8016H34.3049V47.6776H33.1219V54.8016ZM33.7329 46.5206C34.1619 46.5206 34.5129 46.1696 34.5129 45.7146C34.5129 45.2596 34.1619 44.9086 33.7329 44.9086C33.2779 44.9086 32.9269 45.2596 32.9269 45.7146C32.9269 46.1696 33.2779 46.5206 33.7329 46.5206ZM36.5031 52.8516C36.5031 54.2816 37.2181 54.8016 38.4791 54.8016H39.5451V53.8006H38.6741C37.9461 53.8006 37.6861 53.5536 37.6861 52.8516V48.6526H39.5451V47.6776H37.6861V45.8836H36.5031V47.6776H35.5801V48.6526H36.5031V52.8516ZM40.9005 54.8016H42.0835V47.6776H40.9005V54.8016ZM41.5115 46.5206C41.9405 46.5206 42.2915 46.1696 42.2915 45.7146C42.2915 45.2596 41.9405 44.9086 41.5115 44.9086C41.0565 44.9086 40.7055 45.2596 40.7055 45.7146C40.7055 46.1696 41.0565 46.5206 41.5115 46.5206ZM47.0507 48.5616C48.2727 48.5616 49.3127 49.3286 49.2997 50.7196H44.8017C44.9317 49.3286 45.8937 48.5616 47.0507 48.5616ZM50.3787 52.6046H49.1047C48.8447 53.3716 48.1687 53.9176 47.1027 53.9176C45.8937 53.9176 44.8797 53.1246 44.7887 51.6816H50.4827C50.5087 51.4346 50.5217 51.2266 50.5217 50.9666C50.5217 49.0166 49.1697 47.5606 47.1027 47.5606C45.0227 47.5606 43.5797 48.9776 43.5797 51.2266C43.5797 53.4886 45.0747 54.9186 47.1027 54.9186C48.8707 54.9186 50.0147 53.9046 50.3787 52.6046ZM57.1272 52.8646C57.0752 50.3166 52.9412 51.2396 52.9412 49.5496C52.9412 48.9776 53.4612 48.5616 54.3322 48.5616C55.2812 48.5616 55.8272 49.0816 55.8792 49.7966H57.0622C56.9842 48.4056 55.9442 47.5606 54.3712 47.5606C52.7852 47.5606 51.7582 48.4576 51.7582 49.5496C51.7582 52.2016 55.9702 51.2786 55.9702 52.8646C55.9702 53.4496 55.4502 53.9176 54.5142 53.9176C53.5132 53.9176 52.9022 53.3976 52.8372 52.7086H51.6152C51.6932 54.0086 52.8632 54.9186 54.5272 54.9186C56.1002 54.9186 57.1272 54.0346 57.1272 52.8646Z" fill="#9E9E9E"/>
</svg>
